<?xml version="1.0" encoding="utf-8"?>
<!-- Generator: Adobe Illustrator 23.0.2, SVG Export Plug-In . SVG Version: 6.00 Build 0)  -->
<svg version="1.1" id="Слой_1" xmlns="http://www.w3.org/2000/svg" xmlns:xlink="http://www.w3.org/1999/xlink" x="0px" y="0px"
	 width="167px" height="22px" viewBox="0 0 167 22" style="enable-background:new 0 0 167 22;" xml:space="preserve">
<style type="text/css">
	.st0{fill-rule:evenodd;clip-rule:evenodd;fill:#FFFFFF;}
</style>
<path class="st0" d="M36.9,5.6c0,0.2-0.2,0.5-0.5,0.9C36,7.1,35.2,7.7,34,8.4c-0.8,0.8-2.2,2.5-4.3,4.9c-1.3,1.6-2.4,3.2-3.3,4.9
	c-0.3,0.6-0.5,1-0.7,1.4c-0.2,0-0.4-0.2-0.4-0.6c0-0.4,0.1-0.9,0.4-1.4c0.7-1.4,1.7-2.9,3-4.3c0.2-0.3,0.7-0.9,1.5-1.5l-0.1-0.1
	c-0.1,0.1-0.6,0.6-1.7,1.7c-2.6,2.5-4.5,4.2-5.6,5.1c-1.6,1.2-2.7,1.8-3.3,1.8c-0.3,0-0.6-0.1-0.7-0.3c-0.2-0.2-0.3-0.5-0.3-0.8
	c0-0.6,0.3-1.5,0.9-2.6c0.9-1.6,2.3-3.3,4.2-5.2C25.8,9,28,7.2,30.2,6c-1.3-0.3-2.7-0.5-4.3-0.4c-1.1,0-2.3,0.3-3.5,0.8
	c-1.3,0.5-2.6,1.2-3.7,2.1c-1,0.8-1.8,1.7-2.4,2.7c-0.6,1-0.8,1.9-0.9,2.7c0,1.7,0.4,2.9,1.4,3.7c0.1,0.1,0.2,0.2,0.2,0.2
	c0,0.1-0.1,0.1-0.2,0c-1.2-0.7-1.8-2.1-1.7-4.1c0-0.9,0.3-2,0.9-3c0.6-1.2,1.4-2.2,2.4-3c2.1-1.6,4.6-2.5,7.5-2.6
	c1.6,0,3.2,0.2,4.7,0.6c0.1-0.1,0.3-0.1,0.4-0.1c0.2,0,0.2,0.1,0.1,0.3c0.2,0.1,0.4,0.2,0.7,0.3C32,6.4,32.1,6.6,32,6.6
	c0,0-0.1,0-0.3-0.1c-0.2-0.1-0.4-0.2-0.7-0.3c-0.2,0.2-0.6,0.5-1.2,0.8c-2.2,1.6-4.2,3.5-6.1,5.4c-1.5,1.6-2.7,3.1-3.5,4.4
	c-0.7,1.1-1,1.8-1,2.3c0,0.3,0.2,0.5,0.5,0.5c0.5,0,1.5-0.6,3-1.7c0.5-0.4,2.2-1.9,4.9-4.4c0.8-0.8,2.9-2.6,6.2-5.4
	c0.4-0.4,0.9-1.1,1.7-1.9c0.6-0.6,1-0.9,1.3-0.9C36.9,5.3,36.9,5.4,36.9,5.6L36.9,5.6z M36.9,5.6L36.9,5.6L36.9,5.6z M39.4,15.9
	c0,0.1,0,0.2-0.1,0.3c-0.7,0.7-1.4,1.4-2.1,1.9c-0.9,0.7-1.5,1-2,0.9c-0.3-0.1-0.5-0.3-0.5-0.8c0-0.4,0.1-0.7,0.4-1.2
	c0.3-0.5,0.8-1.1,1.6-2c0.4-0.4,0.8-0.8,1.2-1.2c0.5-0.5,0.7-0.8,0.7-1c0-0.1,0-0.1-0.1-0.1c-0.3,0-0.8,0.3-1.8,0.9
	c-0.9,0.6-1.7,1.3-2.4,1.9c-0.7,0.7-1.7,1.9-2.8,3.5c-0.1,0-0.2-0.1-0.2-0.3c0-0.2,0-0.4,0-0.5c0.4-0.8,1.1-1.8,2.1-3.2
	c0.1-0.1,0.5-0.5,1.2-1.2c0.5-0.5,0.8-0.8,0.8-1c0,0,0-0.1-0.1-0.1c-0.2-0.1-0.9,0.2-2,1c-1.1,0.8-2,1.5-2.6,2.2
	c-0.8,0.8-1.6,1.8-2.4,3.1c-0.1,0-0.2-0.1-0.2-0.3c0-0.2,0-0.4,0-0.5c0.4-1,1.3-2.2,2.4-3.6c0.6-0.7,1.2-1.3,1.8-1.7
	c0.3-0.2,0.7-0.3,1.3-0.3c-0.9,0.7-1.8,1.7-2.7,2.8c2.3-2.1,3.8-3.1,4.6-2.9c0.3,0.1,0.4,0.2,0.4,0.5c0,0.3-0.1,0.7-0.4,1.1
	c1.5-1.1,2.4-1.7,2.9-1.7c0.2,0,0.3,0.1,0.4,0.2c0.1,0.1,0.2,0.3,0.2,0.5c0,0.5-0.6,1.4-1.7,2.6c-0.5,0.6-1,1.1-1.5,1.7
	c-0.5,0.6-0.7,0.9-0.7,1.1c0,0.1,0.1,0.2,0.2,0.2c0.3,0,0.8-0.3,1.6-0.9c0.7-0.6,1.4-1.2,2-1.8C39.3,15.9,39.4,15.8,39.4,15.9
	L39.4,15.9z M39.4,15.9L39.4,15.9L39.4,15.9z M46.2,12.7c-1.7,1.7-3,3.2-3.8,4.4c-0.5,0.7-0.8,1.2-0.8,1.4c0,0.1,0,0.1,0.1,0.2
	c0.2,0.1,0.8-0.3,1.8-1.1c0.4-0.4,1-1,1.8-1.7c0.1-0.1,0.2-0.1,0.2,0c0,0.1,0,0.2-0.1,0.3c-0.6,0.6-1.2,1.2-1.8,1.7
	c-0.9,0.9-1.6,1.3-2,1.3c-0.5,0-0.7-0.2-0.7-0.7c0-0.3,0.1-0.7,0.4-1.1c-1.3,1.2-2.2,1.8-2.7,1.8c-0.4,0-0.6-0.2-0.6-0.7
	c0-0.9,0.5-1.9,1.5-3c0.6-0.7,1.4-1.4,2.3-2c0.9-0.6,1.6-0.8,2.1-0.8c0.4,0,0.6,0.2,0.6,0.5c0,0.3-0.2,0.7-0.6,1.1
	c0.8-0.7,1.3-1.2,1.6-1.3C45.7,12.7,45.9,12.7,46.2,12.7L46.2,12.7z M46.2,12.7L46.2,12.7L46.2,12.7z M44,12.8c-0.6,0-1.8,1-3.6,3
	c-1.2,1.3-1.7,2.1-1.7,2.7c0,0.1,0,0.2,0.1,0.2c0.2,0.1,0.6-0.2,1.3-0.8c0.7-0.6,1.5-1.4,2.3-2.3c1.3-1.5,1.9-2.4,1.9-2.6
	C44.2,12.9,44.1,12.8,44,12.8L44,12.8z M44,12.8L44,12.8L44,12.8z M45.9,15.7c-0.4,0.5-0.8,0.9-1.1,1.3c-0.5,0.8-0.8,1.2-0.8,1.4
	c0,0.1,0,0.1,0.1,0.2c0.3,0.1,0.9-0.2,1.8-1.1c0.8-0.8,1.3-1.4,1.7-1.9c1.2-1.4,2.1-2.3,2.8-2.7c0.7-0.3,1.3-0.4,1.7-0.3
	c-1.6,1.7-2.9,3.2-3.8,4.5c-0.6,0.8-0.8,1.3-0.8,1.4c0,0.1,0,0.1,0.1,0.2c0.2,0.1,0.8-0.2,1.7-1.1c0,0,0.6-0.6,1.8-1.8
	c0.1-0.1,0.2-0.1,0.2,0c0.1,0.1,0,0.1-0.1,0.2c-0.4,0.5-1,1.1-1.8,1.8c-0.9,0.8-1.6,1.3-2,1.3c-0.5,0-0.7-0.3-0.7-0.7
	c0-0.7,1.1-2.2,3.2-4.4c-0.3,0.1-0.6,0.2-0.8,0.5c-1.6,1.7-2.7,2.9-3.3,3.4c-0.9,0.8-1.6,1.3-2,1.3c-0.4,0-0.6-0.2-0.6-0.6
	c0-0.5,0.2-1,0.7-1.7C44.7,15.9,45.3,15.6,45.9,15.7L45.9,15.7z M45.9,15.7L45.9,15.7L45.9,15.7z M52.1,15.5
	c0.5-0.1,0.9-0.2,1.2-0.2c0.4,0,0.6,0.1,0.8,0.3c0.2,0.2,0.2,0.6,0,1c-0.2,0.5-0.4,0.8-0.8,1.2c-0.9,0.8-1.7,1.2-2.4,1.3
	c-0.4,0-0.6,0-0.8-0.2c-0.2-0.2-0.3-0.5-0.3-0.8c0-0.9,0.6-2,1.6-3.1c0.8-0.8,1.6-1.5,2.3-2c0.3-0.2,0.7-0.3,1.2-0.3
	C53.9,13.6,53,14.5,52.1,15.5L52.1,15.5z M52.1,15.5L52.1,15.5L52.1,15.5z M51,16.9c-0.3,0.4-0.5,0.8-0.5,1.2c0,0.4,0.2,0.6,0.4,0.6
	c0.5,0,1.1-0.3,1.8-0.9c0.5-0.4,0.8-0.9,0.9-1.4c0.2-0.5,0.1-0.8-0.1-0.9c-0.3-0.1-0.7,0-1.2,0.2C51.9,16.1,51.4,16.4,51,16.9
	L51,16.9z M51,16.9L51,16.9L51,16.9z M58.4,15.7c-0.1,0-0.3,0.1-0.4,0.1c-0.4,0-0.7-0.2-0.7-0.7c0.1-0.8,0.5-1.5,1.3-2
	c0.7-0.4,1.3-0.6,1.8-0.6c0.4,0,0.5,0.2,0.5,0.5c0,0.3-0.2,0.7-0.5,1.1l0,0c0.4-0.4,0.9-0.8,1.5-1.3c0.2-0.1,0.4-0.1,0.7-0.1
	c-1.6,1.7-2.9,3.2-3.8,4.5c-0.6,0.8-0.8,1.3-0.8,1.4c0,0.1,0,0.1,0.1,0.2c0.2,0.1,0.8-0.2,1.7-1.1c0,0,0.6-0.6,1.8-1.8
	c0.1-0.1,0.2-0.1,0.2,0c0.1,0.1,0,0.1-0.1,0.2c-0.4,0.5-1,1.1-1.8,1.8C59,18.6,58.4,19,58,19c-0.5,0-0.7-0.3-0.7-0.7
	c0.1-0.7,0.7-1.6,1.7-2.9c-1.1,1-2,1.8-2.6,2.3c-0.9,0.8-1.6,1.3-2,1.3c-0.4,0-0.6-0.2-0.6-0.6c0-0.5,0.2-1,0.7-1.7
	c0.6-0.8,1.2-1.1,1.8-1c-0.4,0.5-0.8,0.9-1.1,1.3c-0.5,0.8-0.8,1.2-0.8,1.4c0,0.1,0,0.1,0.1,0.2c0.3,0.1,0.9-0.2,1.8-1.1
	C57,16.9,57.7,16.2,58.4,15.7L58.4,15.7z M58.4,15.7L58.4,15.7L58.4,15.7z M59.5,14.5c0.8-0.8,1.1-1.3,1.1-1.6
	c0-0.1-0.1-0.2-0.2-0.2c-0.5,0-1,0.3-1.5,0.7c-0.6,0.5-1,1.1-1.1,1.8c0,0.1,0,0.2,0.1,0.2c0.2,0,0.5,0,0.7-0.2
	C59,15,59.3,14.8,59.5,14.5L59.5,14.5z M59.5,14.5L59.5,14.5L59.5,14.5z M62.8,15.7c0,0.6,0.1,0.9,0.3,1c0.3,0.1,0.9-0.2,1.8-1.1
	c1.2-1.4,2.2-2.4,2.9-2.8c0.3-0.2,0.6-0.3,1-0.2c-1.6,1.7-2.9,3.2-3.8,4.5c-0.6,0.8-0.8,1.3-0.8,1.4c0,0.1,0,0.1,0.1,0.2
	c0.2,0.1,0.8-0.2,1.7-1.1c0,0,0.6-0.6,1.8-1.8c0.1-0.1,0.2-0.1,0.2,0c0.1,0.1,0,0.1-0.1,0.2c-0.4,0.5-1,1.1-1.8,1.8
	c-0.9,0.8-1.6,1.3-2,1.3c-0.5,0-0.7-0.3-0.7-0.7c0-0.7,0.4-1.4,1-2c-0.6,0.5-1.1,0.8-1.6,0.8c-0.4,0-0.7-0.2-0.7-0.6
	c-0.5,0.5-1.2,1.4-2.1,2.7c-0.1,0-0.2-0.1-0.2-0.3c0-0.2,0-0.4,0-0.5c0.5-1,1.3-2.2,2.4-3.6c0.7-0.8,1.2-1.4,1.7-1.7
	c0.3-0.2,0.7-0.3,1.3-0.3C64.7,13.3,63.8,14.3,62.8,15.7L62.8,15.7z M62.8,15.7L62.8,15.7L62.8,15.7z M72.4,13.8
	c-0.2,0.4-0.4,0.8-0.8,1.1c-0.2,0.2-0.4,0.3-0.5,0.3c-0.2,0-0.2-0.1-0.2-0.3c0-0.2,0.2-0.5,0.6-0.8c0.6-0.4,0.8-0.7,0.8-1.1
	c0-0.2-0.1-0.3-0.2-0.3c-0.4,0-1.4,0.9-3,2.6c-1.2,1.3-1.8,2.3-1.8,2.9c0,0.3,0.1,0.4,0.4,0.4c0.5,0,1.1-0.3,1.8-0.9
	c0.6-0.4,1.3-1.1,2.3-2.1c0.1-0.1,0.2-0.1,0.2,0c0.1,0.1,0.1,0.1,0,0.2c-0.5,0.6-1.2,1.2-2,1.9c-0.9,0.7-1.6,1.1-2.3,1.2
	c-0.4,0-0.7,0-0.8-0.2c-0.2-0.2-0.3-0.5-0.3-0.8c0-0.9,0.6-2,1.6-3.1c0.6-0.7,1.3-1.2,2.1-1.7c0.7-0.5,1.3-0.7,1.8-0.7
	c0.4,0,0.5,0.2,0.5,0.6C72.5,13.3,72.5,13.5,72.4,13.8L72.4,13.8z M72.4,13.8L72.4,13.8L72.4,13.8z M94.6,6c-0.1,0.8-0.5,1.4-1,1.8
	c-0.1,0.1-0.2,0.1-0.2,0c0,0,0-0.1,0.1-0.2c0.4-0.4,0.6-0.9,0.7-1.4c0-0.2,0.1-0.4,0.1-0.6c0-1-0.3-1.8-1-2.3c-0.8-0.7-1.8-1-3.2-1
	c-2.4,0-5.2,1.5-8.6,4.6c-1.3,1.2-2.7,2.6-4.2,4.2c-1.8,1.9-3.2,3.6-4.3,5.2c0.4-0.4,1.2-1,2.3-2c1.5-1.2,2.6-1.8,3.3-1.7
	c0.4,0.1,0.6,0.3,0.5,0.8c0,0.2-0.1,0.3-0.3,0.4c0,0-0.2-0.1-0.4-0.3c-0.1-0.1-0.3-0.2-0.5-0.2c-0.7,0-1.4,0.3-2.1,0.9
	c-0.4,0.5-0.7,1.3-1,2.3c-0.2,0.7-0.3,1.2-0.3,1.5c0,0.3,0.1,0.4,0.3,0.4c0.2,0,0.7-0.3,1.4-0.9c0.5-0.5,1.1-1.1,1.8-1.7
	c0.1-0.1,0.1-0.1,0.2,0c0.1,0.1,0,0.2-0.1,0.3c-0.7,0.7-1.3,1.3-1.8,1.8c-1.1,0.9-1.8,1.3-2.2,1.3c-0.3-0.1-0.5-0.3-0.5-0.8
	c0-0.3,0.1-0.7,0.2-1.2c0.2-0.8,0.5-1.5,0.8-2.1c-0.2,0.2-0.5,0.4-0.9,0.8c-0.7,0.6-1.2,1.1-1.5,1.5c-0.6,0.8-1,1.4-1.3,1.9
	c-0.2,0-0.3-0.2-0.3-0.6c0-0.1,0-0.2,0-0.3c0.3-0.9,1.1-2.2,2.4-3.8c2.6-3.3,5.3-6.1,8.1-8.4c1.3-1.1,2.7-2,4.1-2.8
	c1.9-1,3.5-1.4,4.9-1.4c1.5,0,2.7,0.4,3.5,1.1c0.7,0.6,1.1,1.5,1.1,2.4C94.6,5.6,94.6,5.8,94.6,6L94.6,6z M94.6,6L94.6,6L94.6,6z
	 M82.8,13.1c0,0.7-0.6,1.8-1.7,3.1c-1.6,1.9-2.9,2.8-3.7,2.8c-0.5,0-0.8-0.3-0.8-1c0-0.9,0.5-1.9,1.5-3.1c0.6-0.7,1.3-1.3,2.1-1.8
	c0.8-0.5,1.4-0.7,1.9-0.7C82.6,12.5,82.8,12.7,82.8,13.1L82.8,13.1z M82.8,13.1L82.8,13.1L82.8,13.1z M82.3,12.8c-0.6,0-1.8,1-3.5,3
	c-1.1,1.3-1.6,2.1-1.6,2.6c0,0.2,0.1,0.3,0.3,0.3c0.5,0,1.7-1,3.5-3.1c1.1-1.3,1.6-2.1,1.6-2.6C82.5,12.9,82.5,12.8,82.3,12.8
	L82.3,12.8z M82.3,12.8L82.3,12.8L82.3,12.8z M87.3,13c0,0.4-0.3,0.9-1,1.4c-0.3,0.2-0.6,0.4-1,0.6c-0.4,0.2-0.8,0.3-1,0.3
	c-0.1,0-0.2,0-0.3-0.1c-1.3,1.4-2,2.5-2,3.1c0,0.3,0.1,0.4,0.4,0.4c0.4,0,1-0.2,1.6-0.7c0.7-0.5,1.5-1.3,2.4-2.2
	c0.1-0.1,0.2-0.2,0.3-0.1c0.1,0.1,0,0.2-0.1,0.3c-0.7,0.8-1.5,1.4-2.2,2c-0.9,0.7-1.7,1.1-2.3,1c-0.6-0.1-0.9-0.5-0.8-1.2
	c0.1-0.9,0.6-1.8,1.5-2.8c0.6-0.7,1.3-1.3,2.1-1.8c0.8-0.5,1.4-0.8,1.9-0.8C87.1,12.5,87.3,12.7,87.3,13L87.3,13z M87.3,13L87.3,13
	L87.3,13z M86.9,12.8c-0.1-0.1-0.5,0.1-1.2,0.7c-0.6,0.5-1.2,1.1-1.7,1.6c0,0,0.1,0,0.1,0c0.5,0,1.2-0.3,1.9-1
	c0.6-0.5,0.9-0.9,0.9-1.2C87,12.8,87,12.8,86.9,12.8L86.9,12.8z M86.9,12.8L86.9,12.8L86.9,12.8z M118.4,6c-0.1,0.8-0.5,1.4-1,1.8
	c-0.1,0.1-0.2,0.1-0.2,0c0,0,0-0.1,0.1-0.2c0.4-0.4,0.6-0.9,0.7-1.4c0-0.2,0.1-0.4,0.1-0.6c0-1-0.3-1.8-1-2.3c-0.8-0.7-1.8-1-3.2-1
	c-2.4,0-5.2,1.5-8.6,4.6c-1.3,1.2-2.7,2.6-4.2,4.2c-1.8,1.9-3.2,3.6-4.3,5.2c0.4-0.4,1.2-1,2.3-2c1.5-1.2,2.6-1.8,3.3-1.7
	c0.4,0.1,0.6,0.3,0.5,0.8c0,0.2-0.1,0.3-0.3,0.4c0,0-0.2-0.1-0.4-0.3c-0.1-0.1-0.3-0.2-0.5-0.2c-0.7,0-1.4,0.3-2.1,0.9
	c-0.4,0.5-0.7,1.3-1,2.3c-0.2,0.7-0.3,1.2-0.3,1.5c0,0.3,0.1,0.4,0.3,0.4c0.2,0,0.6-0.3,1.4-0.9c0.5-0.5,1.1-1.1,1.8-1.7
	c0.1-0.1,0.1-0.1,0.2,0c0.1,0.1,0,0.2-0.1,0.3c-0.7,0.7-1.3,1.3-1.9,1.8c-1.1,0.9-1.8,1.3-2.2,1.3c-0.3-0.1-0.5-0.3-0.5-0.8
	c0-0.3,0.1-0.7,0.2-1.2c0.2-0.8,0.5-1.5,0.8-2.1c-0.2,0.2-0.5,0.4-0.9,0.8c-0.7,0.6-1.2,1.1-1.5,1.5c-0.6,0.8-1,1.4-1.3,1.9
	c-0.2,0-0.3-0.2-0.3-0.6c0-0.1,0-0.2,0-0.3c0.3-0.9,1.1-2.2,2.4-3.8c2.6-3.3,5.3-6.1,8.1-8.4c1.3-1.1,2.7-2,4.1-2.8
	c1.9-1,3.5-1.4,4.9-1.4c1.5,0,2.7,0.4,3.5,1.1c0.7,0.6,1.1,1.5,1.1,2.4C118.4,5.6,118.4,5.8,118.4,6L118.4,6z M118.4,6L118.4,6
	L118.4,6z M108.5,12.7c-1.7,1.7-2.9,3.2-3.8,4.4c-0.5,0.7-0.8,1.2-0.8,1.4c0,0.1,0,0.1,0.1,0.2c0.2,0.1,0.8-0.3,1.8-1.1
	c0.4-0.4,1-1,1.8-1.7c0.1-0.1,0.2-0.1,0.2,0c0,0.1,0,0.2-0.1,0.3c-0.6,0.6-1.2,1.2-1.8,1.7c-0.9,0.9-1.6,1.3-2,1.3
	c-0.5,0-0.7-0.2-0.7-0.7c0-0.3,0.1-0.7,0.4-1.1c-1.3,1.2-2.2,1.8-2.7,1.8c-0.4,0-0.6-0.2-0.6-0.7c0-0.9,0.5-1.9,1.5-3
	c0.6-0.7,1.4-1.4,2.3-2c0.9-0.6,1.6-0.8,2.1-0.8c0.4,0,0.6,0.2,0.6,0.5c0,0.3-0.2,0.7-0.6,1.1c0.8-0.7,1.3-1.2,1.6-1.3
	C108,12.7,108.2,12.7,108.5,12.7L108.5,12.7z M108.5,12.7L108.5,12.7L108.5,12.7z M106.3,12.8c-0.6,0-1.8,1-3.6,3
	c-1.2,1.3-1.7,2.1-1.7,2.7c0,0.1,0,0.2,0.1,0.2c0.2,0.1,0.6-0.2,1.4-0.8c0.7-0.6,1.5-1.4,2.3-2.3c1.3-1.5,1.9-2.4,1.9-2.6
	C106.5,12.9,106.4,12.8,106.3,12.8L106.3,12.8z M106.3,12.8L106.3,12.8L106.3,12.8z M107.3,16.4c-0.1,0.1-0.2,0.2-0.3,0.1
	c-0.1-0.1,0-0.1,0.1-0.3c0.2-0.2,0.6-0.7,1.4-1.5c0.7-0.7,1.2-1.3,1.5-1.7c0-0.2,0.1-0.5,0.4-0.8c0.2-0.3,0.4-0.5,0.6-0.6
	c0.2-0.1,0.4-0.2,0.6-0.3c0.4-0.1,0.6-0.1,0.7,0c0.1,0.1-0.3,0.4-1.2,0.9c-0.6,0.4-0.8,0.6-0.8,0.8c0,0.1,0.2,0.2,0.5,0.3
	c0.4,0.1,0.6,0.4,0.5,0.8c-0.1,0.7-0.7,1.5-1.7,2.5c-0.9,0.8-1.3,1.4-1.3,1.8c0,0.1,0.1,0.2,0.2,0.2c0.3,0,0.9-0.3,1.6-0.9
	c0.3-0.2,0.9-0.9,2-1.9c0.1-0.1,0.2-0.1,0.2,0c0.1,0.1,0.1,0.2,0,0.2c-0.9,0.9-1.6,1.5-2.1,2c-0.8,0.7-1.4,1-1.8,1
	c-0.4,0-0.6-0.3-0.6-0.8c0-0.8,0.5-1.7,1.3-2.5c1.1-1.1,1.7-1.8,1.7-1.9c0-0.1-0.1-0.2-0.4-0.3c-0.2-0.1-0.3-0.2-0.3-0.3
	c-0.3,0.4-0.8,0.9-1.4,1.6C108.6,15.1,108.1,15.6,107.3,16.4L107.3,16.4z M107.3,16.4L107.3,16.4L107.3,16.4z M117.1,13
	c0,0.4-0.3,0.9-1,1.4c-0.3,0.2-0.6,0.4-1,0.6c-0.4,0.2-0.8,0.3-1,0.3c-0.1,0-0.2,0-0.3-0.1c-1.3,1.4-2,2.5-2,3.1
	c0,0.3,0.1,0.4,0.4,0.4c0.4,0,1-0.2,1.6-0.7c0.7-0.5,1.5-1.3,2.4-2.2c0.1-0.1,0.2-0.2,0.3-0.1c0,0.1,0,0.2-0.1,0.3
	c-0.7,0.8-1.5,1.4-2.2,2c-0.9,0.7-1.7,1.1-2.3,1c-0.6-0.1-0.9-0.5-0.8-1.2c0.1-0.9,0.6-1.8,1.5-2.8c0.6-0.7,1.3-1.3,2.1-1.8
	c0.8-0.5,1.4-0.8,1.9-0.8C116.9,12.5,117.1,12.7,117.1,13L117.1,13z M117.1,13L117.1,13L117.1,13z M116.7,12.8
	c-0.1-0.1-0.5,0.1-1.2,0.7c-0.6,0.5-1.2,1.1-1.7,1.6c0,0,0.1,0,0.1,0c0.5,0,1.2-0.3,1.9-1c0.6-0.5,0.9-0.9,0.9-1.2
	C116.8,12.8,116.8,12.8,116.7,12.8L116.7,12.8z M116.7,12.8L116.7,12.8L116.7,12.8z M120.8,13.8c-0.2,0.4-0.4,0.8-0.8,1.1
	c-0.2,0.2-0.4,0.3-0.5,0.3c-0.2,0-0.2-0.1-0.2-0.3c0-0.2,0.2-0.5,0.6-0.8c0.6-0.4,0.8-0.7,0.8-1.1c0-0.2-0.1-0.3-0.2-0.3
	c-0.4,0-1.4,0.9-3,2.6c-1.2,1.3-1.8,2.3-1.8,2.9c0,0.3,0.1,0.4,0.4,0.4c0.5,0,1.1-0.3,1.8-0.9c0.6-0.4,1.3-1.1,2.3-2.1
	c0.1-0.1,0.2-0.1,0.2,0c0.1,0.1,0.1,0.1,0,0.2c-0.5,0.6-1.2,1.2-2,1.9c-0.9,0.7-1.6,1.1-2.3,1.2c-0.4,0-0.7,0-0.8-0.2
	c-0.2-0.2-0.3-0.5-0.3-0.8c0-0.9,0.6-2,1.6-3.1c0.6-0.7,1.3-1.2,2.1-1.7c0.7-0.5,1.3-0.7,1.8-0.7c0.4,0,0.5,0.2,0.5,0.6
	C121,13.3,120.9,13.5,120.8,13.8L120.8,13.8z M120.8,13.8L120.8,13.8L120.8,13.8z M130,15.9c0,0.1,0,0.2-0.1,0.3
	c-0.7,0.7-1.4,1.4-2.1,1.9c-0.9,0.7-1.5,1-2,0.9c-0.3-0.1-0.5-0.3-0.5-0.8c0-0.4,0.1-0.7,0.4-1.2c0.3-0.5,0.8-1.1,1.6-2
	c0.4-0.4,0.8-0.8,1.2-1.2c0.5-0.5,0.7-0.8,0.7-1c0-0.1,0-0.1-0.1-0.1c-0.3,0-0.8,0.3-1.8,0.9c-0.9,0.6-1.7,1.3-2.4,1.9
	c-0.7,0.7-1.7,1.9-2.8,3.5c-0.1,0-0.2-0.1-0.2-0.3c0-0.2,0-0.4,0-0.5c0.4-0.8,1.1-1.8,2.1-3.2c0.1-0.1,0.5-0.5,1.2-1.2
	c0.5-0.5,0.8-0.8,0.8-1c0,0,0-0.1-0.1-0.1c-0.2-0.1-0.9,0.2-2,1c-1.1,0.8-2,1.5-2.6,2.2c-0.8,0.8-1.6,1.8-2.4,3.1
	c-0.1,0-0.2-0.1-0.2-0.3c0-0.2,0-0.4,0-0.5c0.4-1,1.3-2.2,2.4-3.6c0.6-0.7,1.2-1.3,1.8-1.7c0.3-0.2,0.7-0.3,1.3-0.3
	c-0.9,0.7-1.8,1.7-2.7,2.8c2.3-2.1,3.8-3.1,4.6-2.9c0.3,0.1,0.4,0.2,0.4,0.5c0,0.3-0.1,0.7-0.4,1.1c1.5-1.1,2.4-1.7,2.9-1.7
	c0.2,0,0.3,0.1,0.4,0.2c0.1,0.1,0.2,0.3,0.2,0.5c0,0.5-0.6,1.4-1.7,2.6c-0.5,0.6-1,1.1-1.5,1.7c-0.5,0.6-0.7,0.9-0.7,1.1
	c0,0.1,0.1,0.2,0.2,0.2c0.3,0,0.8-0.3,1.6-0.9c0.7-0.6,1.4-1.2,2-1.8C129.8,15.9,130,15.8,130,15.9L130,15.9z"/>
<path class="st0" d="M142.8,4.5c0,1.5,0.3,2.8,1.1,3.9c0.8,1,1.8,1.6,2.9,1.7c1.8,0.2,3.1-0.2,4.1-1.2c0.7-0.8,1.1-1.8,1-2.9
	c0-1-0.4-1.8-1-2.3c-0.8-0.7-1.8-1-3.2-1C146.3,2.8,144.6,3.3,142.8,4.5L142.8,4.5z M142.8,4.5L142.8,4.5L142.8,4.5z M142.8,3.9
	c1.8-1,3.4-1.5,5-1.5c1.5,0,2.7,0.4,3.4,1.1c0.8,0.8,1.1,1.7,1.1,2.7c0,1.2-0.4,2.2-1.2,3c-1,1.1-2.5,1.5-4.4,1.3
	c-1.3-0.2-2.4-0.8-3.2-2c-0.8-1.2-1.2-2.4-1.1-3.9c-1,0.6-2.1,1.5-3.3,2.6c-2.5,2.3-5.1,4.9-7.6,8c1.8-1.5,3-2.3,3.7-2.3
	c0.4,0,0.6,0.2,0.6,0.6c0,0.7-0.6,1.7-1.7,3c-1.7,1.9-3.3,2.9-4.6,2.9c-0.6,0-0.9-0.3-0.9-0.8c0-0.8,0.8-2.1,2.3-4
	c2.8-3.3,5.5-6.1,8-8.1c1.3-1.1,2.6-2,3.7-2.6c0-0.4,0-0.7,0.2-0.8C142.8,3.4,142.9,3.5,142.8,3.9L142.8,3.9z M142.8,3.9L142.8,3.9
	L142.8,3.9z M135.1,13.4c-0.6,0-1.9,0.8-3.9,2.5c-0.6,0.6-1.2,1.1-1.6,1.7c-0.4,0.6-0.6,1-0.5,1.3c0,0.2,0.2,0.3,0.4,0.3
	c0.4,0,0.8-0.3,1.4-0.8c0.4-0.4,1.1-1.1,2.1-2.1c0.5-0.5,0.9-0.9,1.3-1.4c0.6-0.7,0.9-1.1,0.9-1.4C135.3,13.5,135.2,13.4,135.1,13.4
	L135.1,13.4z M135.1,13.4L135.1,13.4L135.1,13.4z M140.6,13.7c0,0.7-0.6,1.8-1.7,3.1c-1.6,1.9-2.9,2.8-3.7,2.8c-0.5,0-0.8-0.3-0.8-1
	c0-0.9,0.5-1.9,1.5-3.1c0.6-0.7,1.3-1.3,2.1-1.8c0.8-0.5,1.4-0.7,1.9-0.7C140.3,13,140.6,13.3,140.6,13.7L140.6,13.7z M140.6,13.7
	L140.6,13.7L140.6,13.7z M140,13.3c-0.6,0-1.8,1-3.5,3c-1.1,1.3-1.6,2.1-1.6,2.6c0,0.2,0.1,0.3,0.3,0.3c0.5,0,1.7-1,3.5-3.1
	c1.1-1.3,1.6-2.1,1.6-2.6C140.3,13.4,140.2,13.3,140,13.3L140,13.3z"/>
</svg>
